<svg width="105" height="24" viewBox="0 0 105 24" fill="none" xmlns="http://www.w3.org/2000/svg">
<path d="M9.216 23.352C7.12533 23.352 5.33333 22.808 3.84 21.72C2.368 20.632 1.32267 19.096 0.704 17.112L4.224 15.8C4.69333 17.1653 5.344 18.2 6.176 18.904C7.008 19.5867 8.032 19.928 9.248 19.928C10.72 19.928 11.904 19.416 12.8 18.392C13.696 17.368 14.144 16.0133 14.144 14.328V0.599998H17.984V14.392C17.984 16.2053 17.6213 17.784 16.896 19.128C16.1707 20.472 15.1467 21.5173 13.824 22.264C12.5227 22.9893 10.9867 23.352 9.216 23.352ZM19.7233 23L28.5233 0.599998H32.9713L41.6433 23H37.5153L35.2113 16.728H26.0273L23.7233 23H19.7233ZM27.1473 13.72H34.1553L30.6353 4.248L27.1473 13.72ZM44.5318 23V0.599998H54.5478C56.0624 0.599998 57.3744 0.898665 58.4838 1.496C59.6144 2.072 60.4891 2.88267 61.1078 3.928C61.7264 4.97333 62.0358 6.18933 62.0358 7.576C62.0358 8.89867 61.7264 10.0827 61.1078 11.128C60.4891 12.1733 59.6144 12.9947 58.4838 13.592C57.3744 14.168 56.0624 14.456 54.5478 14.456H48.3718V23H44.5318ZM48.3718 11.32H53.9398C55.3051 11.32 56.3504 10.9787 57.0758 10.296C57.8011 9.592 58.1638 8.67467 58.1638 7.544C58.1638 6.43467 57.8011 5.53867 57.0758 4.856C56.3504 4.17333 55.3158 3.832 53.9718 3.832H48.3718V11.32ZM60.8795 23L69.6795 0.599998H74.1275L82.7995 23H78.6715L76.3675 16.728H67.1835L64.8795 23H60.8795ZM68.3035 13.72H75.3115L71.7915 4.248L68.3035 13.72ZM85.688 23V0.599998H89.432L101.112 16.888L101.048 0.599998H104.664V23H101.24L89.24 6.264L89.304 23H85.688Z" fill="white"/>
</svg>
