<svg width="64" height="24" viewBox="0 0 64 24" fill="none" xmlns="http://www.w3.org/2000/svg">
<path d="M9.648 23.352C7.74933 23.352 6.08533 22.9467 4.656 22.136C3.248 21.3253 2.16 20.1733 1.392 18.68C0.624 17.1867 0.24 15.4267 0.24 13.4V0.599998H4.08V13.4C4.08 14.7227 4.304 15.864 4.752 16.824C5.22133 17.784 5.872 18.5413 6.704 19.096C7.536 19.6293 8.51733 19.896 9.648 19.896C10.7787 19.896 11.76 19.6293 12.592 19.096C13.4453 18.5413 14.096 17.784 14.544 16.824C14.992 15.864 15.216 14.7227 15.216 13.4V0.599998H19.056V13.4C19.056 15.4267 18.672 17.1867 17.904 18.68C17.1573 20.1733 16.08 21.3253 14.672 22.136C13.264 22.9467 11.5893 23.352 9.648 23.352ZM31.4573 23.352C29.7079 23.352 28.0546 23.0533 26.4973 22.456C24.9613 21.8373 23.4786 20.9307 22.0493 19.736L24.1293 16.92C25.5799 18.0933 26.8706 18.936 28.0013 19.448C29.1533 19.9387 30.3799 20.184 31.6813 20.184C32.6626 20.184 33.5266 20.0347 34.2733 19.736C35.0413 19.416 35.6279 18.9893 36.0333 18.456C36.4599 17.9227 36.6733 17.304 36.6733 16.6C36.6733 15.6827 36.3639 14.9893 35.7453 14.52C35.1479 14.0293 34.1026 13.656 32.6093 13.4L28.4813 12.696C26.5399 12.3547 25.0893 11.704 24.1293 10.744C23.1906 9.76267 22.7213 8.51467 22.7213 7C22.7213 5.656 23.0626 4.48267 23.7453 3.48C24.4279 2.456 25.3773 1.66667 26.5933 1.112C27.8306 0.535999 29.2919 0.247999 30.9773 0.247999C32.6626 0.247999 34.2626 0.493333 35.7773 0.983999C37.2919 1.47467 38.6893 2.18933 39.9693 3.128L38.0173 6.008C36.8866 5.15467 35.7239 4.51467 34.5293 4.088C33.3346 3.64 32.1079 3.416 30.8493 3.416C29.9533 3.416 29.1639 3.55467 28.4813 3.832C27.8199 4.10933 27.2973 4.49333 26.9133 4.984C26.5506 5.47467 26.3693 6.01867 26.3693 6.616C26.3693 7.42667 26.6359 8.056 27.1693 8.504C27.7239 8.93067 28.6093 9.25067 29.8253 9.464L33.8253 10.136C36.0866 10.5413 37.7506 11.2453 38.8173 12.248C39.9053 13.2507 40.4493 14.6053 40.4493 16.312C40.4493 17.6773 40.0653 18.8933 39.2973 19.96C38.5506 21.0267 37.5053 21.8587 36.1613 22.456C34.8173 23.0533 33.2493 23.352 31.4573 23.352ZM41.5358 23L50.3358 0.599998H54.7838L63.4558 23H59.3278L57.0238 16.728H47.8398L45.5358 23H41.5358ZM48.9598 13.72H55.9678L52.4478 4.248L48.9598 13.72Z" fill="white"/>
</svg>
